<svg width="149" height="44" viewBox="0 0 149 44" fill="none" xmlns="http://www.w3.org/2000/svg">
<path d="M0.54 44V0.799998H34.14C36.3 0.799998 38.14 1.56 39.66 3.08C41.18 4.6 41.94 6.44 41.94 8.6V17.42C41.94 17.94 41.88 18.46 41.76 18.98C41.68 19.5 41.52 19.98 41.28 20.42C42.08 21.54 42.68 22.58 43.08 23.54C43.52 24.5 43.74 25.5 43.74 26.54V36.2C43.74 38.36 42.96 40.2 41.4 41.72C39.88 43.24 38.04 44 35.88 44H0.54ZM9.24 37.52H34.98C35.86 37.52 36.44 37.38 36.72 37.1C37.04 36.78 37.2 36.18 37.2 35.3V27.44C37.2 26.56 37.04 25.98 36.72 25.7C36.44 25.38 35.86 25.22 34.98 25.22H9.24C8.36 25.22 7.76 25.38 7.44 25.7C7.16 25.98 7.02 26.56 7.02 27.44V35.3C7.02 36.18 7.16 36.78 7.44 37.1C7.76 37.38 8.36 37.52 9.24 37.52ZM9.24 18.74H33.24C34.12 18.74 34.7 18.6 34.98 18.32C35.26 18 35.4 17.4 35.4 16.52V9.5C35.4 8.62 35.26 8.04 34.98 7.76C34.7 7.44 34.12 7.28 33.24 7.28H9.24C8.36 7.28 7.76 7.44 7.44 7.76C7.16 8.04 7.02 8.62 7.02 9.5V16.52C7.02 17.4 7.16 18 7.44 18.32C7.76 18.6 8.36 18.74 9.24 18.74ZM57.8419 44C55.6819 44 53.8419 43.24 52.3219 41.72C50.8019 40.2 50.0419 38.36 50.0419 36.2V33.68H56.5219V35.3C56.5219 36.18 56.6619 36.78 56.9419 37.1C57.2619 37.38 57.8619 37.52 58.7419 37.52H84.5419C85.4219 37.52 86.0019 37.38 86.2819 37.1C86.5619 36.78 86.7019 36.18 86.7019 35.3V27.86C86.7019 26.94 86.5619 26.34 86.2819 26.06C86.0019 25.78 85.4219 25.64 84.5419 25.64H57.8419C55.6819 25.64 53.8419 24.88 52.3219 23.36C50.8019 21.84 50.0419 20 50.0419 17.84V8.6C50.0419 6.44 50.8019 4.6 52.3219 3.08C53.8419 1.56 55.6819 0.799998 57.8419 0.799998H85.4419C87.6019 0.799998 89.4419 1.56 90.9619 3.08C92.4819 4.6 93.2419 6.44 93.2419 8.6V11.12H86.7019V9.5C86.7019 8.62 86.5619 8.04 86.2819 7.76C86.0019 7.44 85.4219 7.28 84.5419 7.28H58.7419C57.8619 7.28 57.2619 7.44 56.9419 7.76C56.6619 8.04 56.5219 8.62 56.5219 9.5V16.94C56.5219 17.86 56.6619 18.46 56.9419 18.74C57.2619 18.98 57.8619 19.1 58.7419 19.1H85.4419C87.6019 19.1 89.4419 19.88 90.9619 21.44C92.4819 22.96 93.2419 24.8 93.2419 26.96V36.2C93.2419 38.36 92.4819 40.2 90.9619 41.72C89.4419 43.24 87.6019 44 85.4419 44H57.8419ZM99.735 44V0.799998H107.475L124.215 20.72L140.895 0.799998H148.695V44H142.155V9.5L124.215 30.86L106.215 9.5V44H99.735Z" fill="#4D52CC"/>
</svg>
